<svg xmlns="http://www.w3.org/2000/svg" fill="none" viewBox="0 0 373 428" height="428" width="373">
<path stroke-dasharray="10 3" stroke="#DEA044" fill="#FCEED9" d="M4.26482 249.078L4.26554 249.085C4.34005 250.797 4.42009 252.489 4.50541 254.159L5.00476 254.134C5.05663 255.149 5.11045 256.157 5.16616 257.158L4.66694 257.186C4.8611 260.672 5.07823 264.066 5.31584 267.368L5.81455 267.332C5.88762 268.347 5.96264 269.354 6.03952 270.352L5.541 270.391C5.80995 273.882 6.10174 277.269 6.41327 280.551L6.91103 280.504C7.00749 281.52 7.10583 282.526 7.20598 283.523L6.70849 283.573C7.06033 287.073 7.4344 290.451 7.82675 293.708L8.32316 293.648C8.44492 294.659 8.56845 295.658 8.69361 296.646L8.19758 296.709C8.64256 300.221 9.10828 303.586 9.58942 306.809L10.0839 306.735C10.2368 307.759 10.3912 308.768 10.547 309.763L10.053 309.841C10.605 313.366 11.1743 316.711 11.7535 319.879L12.2453 319.789C12.4301 320.8 12.6158 321.793 12.8023 322.768L12.3112 322.862C12.9935 326.429 13.6859 329.758 14.3762 332.855L14.8642 332.746C15.0902 333.76 15.316 334.749 15.5411 335.713L15.0542 335.826C15.9036 339.464 16.744 342.751 17.5524 345.698L18.0346 345.566C18.3144 346.585 18.5903 347.565 18.8615 348.503L18.3811 348.642C19.5183 352.579 20.5716 355.81 21.4717 358.369L21.9434 358.203C22.3198 359.273 22.6691 360.225 22.9862 361.062L22.5187 361.239C23.1214 362.829 23.6091 364.005 23.947 364.786C24.1159 365.176 24.2474 365.468 24.3371 365.662C24.3572 365.706 24.3752 365.745 24.391 365.779C24.4105 365.821 24.4268 365.855 24.4397 365.882L24.4664 365.938L24.4735 365.953L24.4754 365.957L24.476 365.958L24.4762 365.958C24.4763 365.958 24.4763 365.959 24.9254 365.739L24.4763 365.959L24.4788 365.964C25.2059 367.408 25.9913 368.82 26.8308 370.199L27.2579 369.939C27.7569 370.758 28.2753 371.567 28.8122 372.364L28.3975 372.643C30.1908 375.305 32.188 377.841 34.3574 380.256L34.7294 379.922C35.3704 380.636 36.0268 381.339 36.6975 382.032L36.3383 382.38C38.5587 384.674 40.935 386.854 43.4377 388.925L43.7565 388.54C44.4951 389.151 45.2449 389.753 46.0052 390.346L45.6978 390.74C48.2172 392.704 50.8496 394.566 53.5671 396.331L53.8393 395.911C54.6428 396.433 55.4539 396.946 56.2718 397.451L56.0092 397.876C58.736 399.559 61.538 401.149 64.3889 402.65L64.6219 402.208C65.472 402.656 66.3265 403.096 67.1848 403.528L66.96 403.974C69.8371 405.423 72.7554 406.784 75.6888 408.063L75.8886 407.605C76.7699 407.989 77.6527 408.366 78.5361 408.735L78.3432 409.196C81.3361 410.448 84.3367 411.616 87.3172 412.705L87.4888 412.235C88.397 412.567 89.3034 412.891 90.2072 413.209L90.0417 413.68C93.1314 414.765 96.1904 415.765 99.1874 416.686L99.3343 416.208C100.261 416.493 101.182 416.77 102.096 417.04L101.955 417.52C105.145 418.462 108.252 419.314 111.237 420.083L111.362 419.599C112.309 419.843 113.244 420.078 114.165 420.306L114.045 420.791C117.369 421.612 120.517 422.326 123.429 422.945L123.533 422.456C124.503 422.661 125.446 422.857 126.362 423.042L126.263 423.532C129.919 424.27 133.124 424.845 135.739 425.279L135.82 424.785C136.866 424.959 137.816 425.11 138.664 425.24L138.588 425.734C140.095 425.965 141.277 426.13 142.082 426.237C142.484 426.291 142.793 426.33 143.001 426.356L143.092 426.367C143.152 426.375 143.201 426.381 143.237 426.385L143.297 426.392L143.313 426.394L143.317 426.394L143.318 426.394L143.318 426.395L143.376 425.898L143.318 426.395L143.33 426.396L143.342 426.397C145.003 426.507 146.652 426.608 148.29 426.701L148.318 426.202C149.3 426.257 150.278 426.31 151.252 426.359L151.226 426.859C154.549 427.028 157.825 427.162 161.054 427.263L161.07 426.763C162.045 426.793 163.017 426.821 163.984 426.845L163.971 427.345C167.301 427.429 170.579 427.478 173.805 427.494L173.808 426.994C174.804 426.999 175.796 427.001 176.782 427L176.783 427.5C180.118 427.495 183.396 427.456 186.618 427.383L186.607 426.883C187.595 426.861 188.578 426.836 189.556 426.808L189.57 427.308C192.906 427.211 196.18 427.08 199.392 426.916L199.366 426.417C200.345 426.367 201.317 426.314 202.284 426.259L202.312 426.758C205.658 426.565 208.934 426.338 212.14 426.08L212.1 425.581C213.091 425.501 214.075 425.419 215.052 425.333L215.096 425.831C218.433 425.538 221.692 425.212 224.873 424.856L224.818 424.359C225.796 424.25 226.767 424.137 227.731 424.022L227.79 424.519C231.138 424.12 234.395 423.688 237.563 423.229L237.491 422.734C238.468 422.592 239.435 422.448 240.394 422.302L240.47 422.796C243.807 422.286 247.041 421.746 250.17 421.182L250.082 420.69C251.063 420.513 252.034 420.334 252.994 420.153L253.087 420.645C256.417 420.016 259.623 419.362 262.705 418.69L262.599 418.201C263.578 417.988 264.544 417.772 265.498 417.555L265.609 418.043C268.947 417.283 272.131 416.505 275.16 415.717L275.034 415.233C275.998 414.983 276.947 414.731 277.88 414.479L278.01 414.962C281.369 414.054 284.524 413.139 287.472 412.233L287.326 411.755C288.285 411.461 289.223 411.167 290.139 410.874L290.291 411.351C293.702 410.262 296.81 409.195 299.611 408.177L299.441 407.707C300.398 407.359 301.32 407.016 302.206 406.681L302.383 407.149C306.034 405.767 309.077 404.503 311.502 403.436L311.301 402.979C312.288 402.544 313.172 402.143 313.953 401.78L314.164 402.234C315.631 401.552 316.736 401.005 317.475 400.627C317.845 400.438 318.124 400.291 318.31 400.192C318.403 400.142 318.474 400.104 318.521 400.078L318.575 400.049L318.577 400.047C318.58 400.046 318.582 400.044 318.585 400.043C320.143 399.252 321.649 398.424 323.104 397.563L322.85 397.132C323.746 396.602 324.623 396.058 325.481 395.502L325.753 395.922C328.724 393.996 331.471 391.925 334.01 389.737L333.684 389.358C334.467 388.683 335.23 387.997 335.973 387.301L336.315 387.666C338.885 385.26 341.224 382.732 343.352 380.117L342.964 379.802C343.616 379.002 344.247 378.194 344.859 377.379L345.259 377.679C347.366 374.874 349.247 371.986 350.925 369.055L350.491 368.807C351.004 367.911 351.498 367.012 351.973 366.109L352.416 366.342C354.054 363.235 355.476 360.095 356.711 356.971L356.246 356.787C356.626 355.824 356.989 354.862 357.334 353.903L357.805 354.072C359.008 350.733 360.005 347.43 360.829 344.221L360.345 344.097C360.603 343.092 360.845 342.096 361.07 341.111L361.558 341.223C362.371 337.673 362.979 334.268 363.431 331.093L362.936 331.022C363.085 329.979 363.217 328.961 363.333 327.97L363.83 328.029C364.292 324.107 364.519 320.623 364.619 317.765L364.12 317.747C364.16 316.606 364.18 315.566 364.186 314.637L364.686 314.641C364.698 313.02 364.67 311.74 364.639 310.863C364.623 310.424 364.607 310.087 364.595 309.858C364.588 309.744 364.583 309.657 364.579 309.598L364.575 309.531L364.574 309.522C364.574 309.52 364.574 309.518 364.574 309.515C364.508 307.936 364.453 306.32 364.408 304.671L363.908 304.685C363.881 303.721 363.858 302.746 363.838 301.762L364.338 301.752C364.275 298.598 364.244 295.342 364.243 292.015L363.743 292.015C363.743 291.049 363.745 290.076 363.749 289.099L364.249 289.101C364.263 285.902 364.302 282.647 364.362 279.363L363.862 279.354C363.88 278.382 363.9 277.408 363.921 276.432L364.421 276.442C364.492 273.208 364.582 269.954 364.687 266.706L364.187 266.69C364.219 265.715 364.252 264.742 364.286 263.769L364.786 263.787C364.901 260.52 365.031 257.268 365.171 254.055L364.672 254.033C364.714 253.055 364.758 252.081 364.803 251.111L365.302 251.134C365.455 247.83 365.617 244.579 365.786 241.408L365.286 241.382C365.339 240.398 365.392 239.422 365.445 238.455L365.944 238.482C366.13 235.127 366.321 231.876 366.512 228.765L366.013 228.734C366.074 227.744 366.135 226.768 366.196 225.807L366.695 225.839C366.914 222.383 367.132 219.128 367.34 216.125L366.841 216.091C366.91 215.094 366.979 214.125 367.045 213.185L367.544 213.221C367.813 209.447 368.06 206.157 368.267 203.481L367.769 203.442C367.851 202.383 367.927 201.42 367.995 200.561L368.494 200.6C368.618 199.048 368.717 197.836 368.786 197.012C368.82 196.601 368.847 196.286 368.865 196.074L368.885 195.835L368.891 195.774L368.891 195.769C368.891 195.767 368.891 195.764 368.892 195.761C369.064 194.299 369.228 192.703 369.384 190.995L368.886 190.949C368.971 190.025 369.053 189.067 369.134 188.08L369.632 188.12C369.873 185.164 370.095 181.939 370.299 178.538L369.8 178.508C369.856 177.565 369.911 176.609 369.965 175.64L370.465 175.668C370.637 172.573 370.796 169.357 370.942 166.084L370.443 166.062C370.485 165.107 370.527 164.148 370.568 163.185L371.067 163.206C371.201 160.027 371.323 156.811 371.435 153.615L370.936 153.598C370.969 152.636 371.002 151.677 371.034 150.721L371.533 150.737C371.641 147.48 371.739 144.261 371.826 141.14L371.326 141.126C371.353 140.157 371.379 139.197 371.404 138.249L371.904 138.262C371.993 134.894 372.071 131.669 372.137 128.667L371.637 128.656C371.659 127.671 371.68 126.711 371.7 125.778L372.199 125.788C372.276 122.12 372.336 118.866 372.381 116.201L371.881 116.193C371.899 115.132 371.915 114.164 371.928 113.301L372.428 113.308C372.451 111.798 372.468 110.606 372.479 109.792C372.484 109.385 372.488 109.072 372.491 108.862L372.494 108.622L372.495 108.562L372.495 108.547L372.495 108.543L372.495 108.542V108.541V108.54C372.509 106.79 372.493 105.072 372.447 103.385L371.947 103.398C371.92 102.385 371.881 101.383 371.833 100.392L372.332 100.367C372.158 96.8233 371.85 93.4216 371.421 90.1565L370.925 90.2217C370.792 89.2089 370.647 88.2094 370.491 87.223L370.985 87.1448C370.43 83.6439 369.734 80.3064 368.912 77.1249L368.427 77.25C368.171 76.2594 367.903 75.2841 367.623 74.3239L368.103 74.1839C367.11 70.781 365.971 67.5652 364.706 64.5266L364.244 64.7188C363.852 63.7765 363.447 62.8514 363.032 61.9431L363.486 61.735C362.015 58.5203 360.401 55.5156 358.673 52.7074L358.247 52.9693C357.706 52.0895 357.154 51.2291 356.591 50.3878L357.007 50.1099C355.046 47.1782 352.962 44.4761 350.792 41.9861L350.415 42.3147C349.742 41.5427 349.061 40.7912 348.373 40.0597L348.737 39.7171C346.318 37.1461 343.811 34.8207 341.266 32.718L340.947 33.1035C340.158 32.4514 339.365 31.8209 338.57 31.2112L338.874 30.8144C336.052 28.6505 333.201 26.7477 330.388 25.0757L330.133 25.5055C329.247 24.9788 328.364 24.4751 327.487 23.9934L327.728 23.5552C324.551 21.8095 321.45 20.3518 318.522 19.1368L318.33 19.5986C317.362 19.1968 316.413 18.8217 315.486 18.4715L315.662 18.0038C311.978 16.6119 308.648 15.6129 305.893 14.9043L305.769 15.3885C304.696 15.1126 303.711 14.881 302.827 14.6875L302.934 14.1991C301.357 13.8536 300.097 13.6287 299.231 13.49C298.798 13.4206 298.463 13.3728 298.235 13.3422C298.121 13.3269 298.034 13.3159 297.975 13.3087L297.908 13.3006L297.908 13.3006C296.3 12.9685 294.694 12.6443 293.088 12.328L292.991 12.8185C292.024 12.628 291.058 12.4403 290.091 12.2554L290.185 11.7643C286.945 11.1442 283.71 10.5554 280.481 9.99665L280.396 10.4893C279.427 10.3215 278.458 10.1564 277.49 9.99403L277.573 9.50093C274.316 8.9546 271.069 8.43849 267.832 7.95123L267.757 8.44566C266.78 8.29846 265.803 8.15389 264.827 8.01192L264.899 7.51713C261.629 7.04138 258.372 6.59478 255.13 6.17589L255.066 6.67177C254.085 6.54505 253.105 6.42087 252.127 6.29918L252.189 5.80301C248.906 5.39456 245.64 5.01424 242.393 4.66057L242.339 5.15763C241.359 5.05088 240.381 4.94656 239.404 4.84462L239.456 4.34732C236.162 4.00343 232.889 3.6867 229.641 3.39556L229.596 3.89357C228.615 3.80568 227.637 3.72012 226.661 3.63686L226.703 3.13866C223.398 2.85677 220.12 2.60112 216.871 2.37003L216.836 2.86877C215.845 2.79829 214.857 2.73009 213.872 2.66414L213.905 2.16525C210.59 1.9433 207.307 1.74668 204.061 1.57358L204.034 2.07287C203.049 2.02034 202.067 1.96998 201.089 1.92174L201.113 1.42235C197.79 1.25849 194.507 1.11904 191.267 1.00199L191.249 1.50166C190.259 1.46591 189.274 1.43226 188.292 1.40064L188.308 0.900896C184.97 0.793321 181.68 0.70928 178.443 0.646551L178.433 1.14646C177.442 1.12725 176.456 1.11004 175.475 1.09477L175.483 0.594831C172.138 0.542778 168.853 0.51319 165.632 0.50354L165.631 1.00354C164.64 1.00057 163.655 0.999488 162.676 1.00022L162.675 0.500223C159.308 0.50275 156.014 0.526748 152.8 0.569218L152.806 1.06917C151.817 1.08224 150.836 1.09705 149.863 1.11353L149.854 0.613601C146.476 0.670768 143.191 0.747929 140.006 0.841438L140.02 1.34122C139.017 1.37068 138.024 1.40176 137.04 1.43435L137.024 0.934627C133.628 1.04717 130.354 1.1777 127.211 1.32153L127.234 1.821C126.222 1.86731 125.223 1.91499 124.239 1.96389L124.214 1.46451C120.771 1.63555 117.497 1.82153 114.406 2.01575L114.438 2.51477C113.421 2.57864 112.424 2.64341 111.448 2.70883L111.415 2.20995C107.858 2.44829 104.57 2.69529 101.575 2.93942L101.616 3.43776C100.608 3.51997 99.6324 3.60184 98.6914 3.68295L98.6484 3.1848C94.7834 3.51792 91.493 3.83813 88.8388 4.11496L88.8907 4.61226C87.811 4.72487 86.8368 4.83029 85.9722 4.92645L85.9169 4.42951C84.3218 4.60693 83.099 4.75293 82.2745 4.85463C81.8623 4.90549 81.5496 4.94526 81.3398 4.97236C81.2349 4.98591 81.1557 4.99629 81.1026 5.00329L81.0426 5.01125L81.0282 5.01321L81.0274 5.01328L81.0253 5.01357C79.4164 5.21037 77.8434 5.44277 76.3055 5.70892L76.3908 6.20159C75.448 6.36477 74.5185 6.54068 73.6023 6.7289L73.5017 6.23912C70.2884 6.89918 67.2355 7.70988 64.3351 8.65274L64.4897 9.12824C63.5737 9.42601 62.6731 9.73701 61.7877 10.0607L61.6161 9.59104C58.5365 10.7167 55.6384 11.9944 52.9112 13.3997L53.1402 13.8442C52.2969 14.2787 51.4702 14.7254 50.6596 15.1837L50.4136 14.7484C47.5697 16.3562 44.9236 18.1048 42.4618 19.9624L42.763 20.3615C41.999 20.938 41.2529 21.525 40.5243 22.1217L40.2075 21.7348C37.6903 23.7962 35.3803 25.9713 33.2609 28.2211L33.6249 28.564C32.971 29.2581 32.3354 29.9594 31.7175 30.6667L31.3409 30.3377C29.1998 32.7887 27.2706 35.3111 25.5329 37.8572L25.9458 38.139C25.4074 38.9279 24.8874 39.7192 24.3852 40.5114L23.9629 40.2436C22.208 43.012 20.67 45.7909 19.3227 48.5198L19.771 48.7412C19.3456 49.6028 18.9393 50.4594 18.5513 51.3092L18.0965 51.1016C16.699 54.162 15.5372 57.1337 14.5728 59.9279L15.0455 60.091C14.7284 61.0098 14.4327 61.9094 14.1571 62.7866L13.6801 62.6367C12.5871 66.1152 11.8081 69.2432 11.2584 71.8243L11.7475 71.9284C11.5317 72.9417 11.3514 73.8701 11.2016 74.7016L10.7095 74.6129C10.4441 76.0855 10.2733 77.2572 10.1686 78.0623C10.1163 78.4649 10.0805 78.7758 10.0578 78.9869C10.0464 79.0925 10.0383 79.1731 10.0329 79.2277L10.0291 79.2683C9.60671 80.8632 9.20159 82.4813 8.81311 84.1205L9.29963 84.2358C9.06833 85.2117 8.84293 86.1952 8.62329 87.1858L8.13515 87.0776C7.41761 90.3139 6.76164 93.6255 6.16288 96.9968L6.65518 97.0842C6.47936 98.0742 6.30848 99.0693 6.14242 100.069L5.64917 99.9874C5.10363 103.273 4.6101 106.609 4.16469 109.984L4.66039 110.049C4.52845 111.049 4.40073 112.052 4.27713 113.058L3.78086 112.997C3.37306 116.316 3.01011 119.668 2.68838 123.039L3.18612 123.086C3.09021 124.091 2.99797 125.098 2.9093 126.106L2.41122 126.062C2.11687 129.408 1.86182 132.77 1.64254 136.134L2.14149 136.167C2.07586 137.174 2.01343 138.181 1.95413 139.188L1.45499 139.159C1.25662 142.527 1.09305 145.895 0.960765 149.25L1.46038 149.27C1.42054 150.28 1.38355 151.289 1.3493 152.296L0.849588 152.279C0.734445 155.665 0.650266 159.034 0.593402 162.372L1.09333 162.381C1.07605 163.395 1.06129 164.407 1.04896 165.416L0.548995 165.41C0.507381 168.812 0.493315 172.179 0.502865 175.495L1.00286 175.493C1.0058 176.513 1.01097 177.528 1.01827 178.538L0.51828 178.542C0.543003 181.966 0.592077 185.33 0.661051 188.619L1.16094 188.609C1.18242 189.633 1.20583 190.65 1.23104 191.66L0.7312 191.672C0.817533 195.129 0.924925 198.495 1.04798 201.75L1.54762 201.731C1.58637 202.757 1.62667 203.771 1.66836 204.774L1.16879 204.794C1.31489 208.309 1.47799 211.681 1.65084 214.886L2.15011 214.859C2.20468 215.871 2.26023 216.867 2.31652 217.844L1.81734 217.873C2.02563 221.491 2.24409 224.87 2.46115 227.967L2.95993 227.932C3.03292 228.974 3.10576 229.984 3.17799 230.961L2.67936 230.997C2.9707 234.936 3.2523 238.332 3.4953 241.083L3.99336 241.039C4.09103 242.145 4.18246 243.147 4.26576 244.037L3.76794 244.084C3.91864 245.695 4.04279 246.943 4.1293 247.788C4.17256 248.211 4.2064 248.533 4.22945 248.75L4.25576 248.995L4.26251 249.057L4.26423 249.073L4.26467 249.077L4.26478 249.078L4.26481 249.078L4.26525 249.078L4.26482 249.078Z"></path>
</svg>
